<svg width="32" height="32" viewBox="0 0 32 32" fill="none" xmlns="http://www.w3.org/2000/svg">
<path d="M3 27H21" stroke="black" stroke-width="2" stroke-linecap="round" stroke-linejoin="round"/>
<path d="M2.1125 17.55L6.825 21.9625C7.45336 22.5516 8.25506 22.9221 9.11087 23.0189C9.96669 23.1157 10.8309 22.9338 11.575 22.5L30.5 11.5L28.175 8.65003C27.5702 7.91137 26.7211 7.41337 25.7812 7.24602C24.8413 7.07868 23.8726 7.25301 23.05 7.73753L17.5 11L10 8.50003L7.9375 9.38753C7.78319 9.45366 7.64802 9.55757 7.54444 9.68968C7.44086 9.8218 7.3722 9.97786 7.34481 10.1435C7.31741 10.3091 7.33215 10.479 7.38767 10.6374C7.44319 10.7958 7.5377 10.9377 7.6625 11.05L11.5 14.5L8 16.5L4.5 15L2.4 15.9C2.24721 15.9657 2.11321 16.0683 2.01011 16.1988C1.90701 16.3293 1.83806 16.4834 1.80952 16.6472C1.78098 16.811 1.79373 16.9794 1.84664 17.137C1.89954 17.2946 1.99091 17.4366 2.1125 17.55V17.55Z" stroke="black" stroke-width="2" stroke-linecap="round" stroke-linejoin="round"/>
</svg>
