<svg width="32" height="32" viewBox="0 0 32 32" fill="none" xmlns="http://www.w3.org/2000/svg">
<path d="M16 18C17.6569 18 19 16.6569 19 15C19 13.3431 17.6569 12 16 12C14.3431 12 13 13.3431 13 15C13 16.6569 14.3431 18 16 18Z" stroke="black" stroke-width="2" stroke-linecap="round" stroke-linejoin="round"/>
<path d="M16.3625 28H15.6375C15.1743 28.0001 14.7254 27.8394 14.3674 27.5453C14.0095 27.2512 13.7648 26.842 13.675 26.3875L12.475 20.3875C12.4178 20.0976 12.4255 19.7986 12.4976 19.512C12.5697 19.2254 12.7044 18.9583 12.8921 18.73C13.0798 18.5017 13.3157 18.3178 13.5829 18.1916C13.8501 18.0654 14.142 17.9999 14.4375 18H17.5625C17.8581 17.9999 18.1499 18.0654 18.4172 18.1916C18.6844 18.3178 18.9203 18.5017 19.108 18.73C19.2956 18.9583 19.4304 19.2254 19.5025 19.512C19.5746 19.7986 19.5823 20.0976 19.525 20.3875L18.325 26.3875C18.2353 26.842 17.9905 27.2512 17.6326 27.5453C17.2747 27.8394 16.8258 28.0001 16.3625 28V28Z" stroke="black" stroke-width="2" stroke-linecap="round" stroke-linejoin="round"/>
<path d="M8.5375 18.9C8.06927 17.6879 7.9033 16.3801 8.05396 15.0895C8.20461 13.7989 8.66735 12.5645 9.40215 11.4929C10.137 10.4213 11.1217 9.54478 12.2713 8.93918C13.4209 8.33357 14.7007 8.01709 16 8.01709C17.2993 8.01709 18.5791 8.33357 19.7287 8.93918C20.8783 9.54478 21.863 10.4213 22.5978 11.4929C23.3327 12.5645 23.7954 13.7989 23.946 15.0895C24.0967 16.3801 23.9307 17.6879 23.4625 18.9" stroke="black" stroke-width="2" stroke-linecap="round" stroke-linejoin="round"/>
<path d="M9.55 26.1124C7.36041 24.7168 5.68258 22.6486 4.76838 20.2183C3.85417 17.788 3.75291 15.1267 4.4798 12.634C5.20669 10.1412 6.72251 7.9515 8.79972 6.3935C10.8769 4.8355 13.4034 3.99329 16 3.99329C18.5966 3.99329 21.1231 4.8355 23.2003 6.3935C25.2775 7.9515 26.7933 10.1412 27.5202 12.634C28.2471 15.1267 28.1458 17.788 27.2316 20.2183C26.3174 22.6486 24.6396 24.7168 22.45 26.1124" stroke="black" stroke-width="2" stroke-linecap="round" stroke-linejoin="round"/>
</svg>
