<svg width="32" height="32" viewBox="0 0 32 32" fill="none" xmlns="http://www.w3.org/2000/svg">
<path d="M10 5H6C5.44772 5 5 5.44772 5 6V26C5 26.5523 5.44772 27 6 27H10C10.5523 27 11 26.5523 11 26V6C11 5.44772 10.5523 5 10 5Z" stroke="black" stroke-width="2" stroke-linecap="round" stroke-linejoin="round"/>
<path d="M5 10H11" stroke="black" stroke-width="2" stroke-linecap="round" stroke-linejoin="round"/>
<path d="M16 5H12C11.4477 5 11 5.44772 11 6V26C11 26.5523 11.4477 27 12 27H16C16.5523 27 17 26.5523 17 26V6C17 5.44772 16.5523 5 16 5Z" stroke="black" stroke-width="2" stroke-linecap="round" stroke-linejoin="round"/>
<path d="M11 22H17" stroke="black" stroke-width="2" stroke-linecap="round" stroke-linejoin="round"/>
<path d="M21.942 4.67266L18.062 5.71266C17.5263 5.85625 17.2084 6.40694 17.352 6.94266L22.552 26.3427C22.6956 26.8784 23.2463 27.1962 23.782 27.0527L27.662 26.0127C28.1978 25.8691 28.5156 25.3184 28.372 24.7827L23.172 5.38266C23.0284 4.84694 22.4778 4.52906 21.942 4.67266Z" stroke="black" stroke-width="2.00848" stroke-linecap="round" stroke-linejoin="round"/>
<path d="M21.4 22.3999L27.2 20.8374" stroke="black" stroke-width="2" stroke-linecap="round" stroke-linejoin="round"/>
<path d="M18.3 10.8L24.1 9.25" stroke="black" stroke-width="2" stroke-linecap="round" stroke-linejoin="round"/>
</svg>
