<svg width="32" height="32" viewBox="0 0 32 32" fill="none" xmlns="http://www.w3.org/2000/svg">
<path d="M16 20C18.2091 20 20 18.2091 20 16C20 13.7909 18.2091 12 16 12C13.7909 12 12 13.7909 12 16C12 18.2091 13.7909 20 16 20Z" stroke="black" stroke-width="2" stroke-linecap="round" stroke-linejoin="round"/>
<path d="M9.63749 22.3625C8.81628 21.5422 8.16247 20.57 7.71249 19.5C7.24216 18.3931 6.99976 17.2027 6.99976 16C6.99976 14.7973 7.24216 13.6069 7.71249 12.5C8.16247 11.43 8.81628 10.4578 9.63749 9.63751" stroke="black" stroke-width="2" stroke-linecap="round" stroke-linejoin="round"/>
<path d="M22.3625 9.63751C23.1838 10.4578 23.8376 11.43 24.2875 12.5C24.7579 13.6069 25.0003 14.7973 25.0003 16C25.0003 17.2027 24.7579 18.3931 24.2875 19.5C23.8376 20.57 23.1838 21.5422 22.3625 22.3625" stroke="black" stroke-width="2" stroke-linecap="round" stroke-linejoin="round"/>
<path d="M6.09997 25.9C4.82454 24.6222 3.80613 23.1115 3.09997 21.45C2.3739 19.7247 1.99988 17.8718 1.99988 16C1.99988 14.1282 2.3739 12.2752 3.09997 10.55C3.80613 8.8884 4.82454 7.37776 6.09997 6.09998" stroke="black" stroke-width="2" stroke-linecap="round" stroke-linejoin="round"/>
<path d="M25.9 6.09998C27.1755 7.37776 28.1939 8.8884 28.9 10.55C29.6261 12.2752 30.0001 14.1282 30.0001 16C30.0001 17.8718 29.6261 19.7247 28.9 21.45C28.1939 23.1115 27.1755 24.6222 25.9 25.9" stroke="black" stroke-width="2" stroke-linecap="round" stroke-linejoin="round"/>
</svg>
