<svg width="32" height="32" viewBox="0 0 32 32" fill="none" xmlns="http://www.w3.org/2000/svg">
<path d="M28 15.925C28.0116 17.5149 27.7058 19.0912 27.1006 20.5615C26.4953 22.0318 25.6027 23.3665 24.475 24.4875C19.8625 29.1 12.3125 29.15 7.6375 24.6C5.92236 22.931 4.74543 20.7873 4.25791 18.4443C3.7704 16.1013 3.99459 13.666 4.90166 11.4514C5.80873 9.23684 7.35726 7.34403 9.34829 6.01622C11.3393 4.68841 13.6819 3.98625 16.075 3.99995C16.2247 4.00216 16.3721 4.03756 16.5065 4.10359C16.6409 4.16962 16.759 4.26464 16.8523 4.38181C16.9455 4.49898 17.0116 4.63538 17.0458 4.78118C17.08 4.92697 17.0814 5.07854 17.05 5.22495C16.9198 5.8057 16.9208 6.40819 17.0529 6.9885C17.1851 7.56882 17.4451 8.11232 17.8139 8.5794C18.1828 9.04648 18.6513 9.42536 19.1851 9.68841C19.719 9.95146 20.3049 10.0921 20.9 10.1C21.1652 10.1 21.4196 10.2053 21.6071 10.3928C21.7946 10.5804 21.9 10.8347 21.9 11.1C21.9079 11.6951 22.0485 12.2809 22.3115 12.8148C22.5746 13.3487 22.9535 13.8172 23.4206 14.186C23.8876 14.5549 24.4311 14.8149 25.0115 14.947C25.5918 15.0792 26.1943 15.0802 26.775 14.95C26.9214 14.9185 27.073 14.9199 27.2188 14.9541C27.3646 14.9883 27.501 15.0544 27.6181 15.1477C27.7353 15.2409 27.8303 15.359 27.8964 15.4934C27.9624 15.6278 27.9978 15.7752 28 15.925V15.925Z" stroke="black" stroke-width="2" stroke-linecap="round" stroke-linejoin="round"/>
<path d="M19.5 23C20.3284 23 21 22.3284 21 21.5C21 20.6716 20.3284 20 19.5 20C18.6716 20 18 20.6716 18 21.5C18 22.3284 18.6716 23 19.5 23Z" fill="black"/>
<path d="M11.5 22C12.3284 22 13 21.3284 13 20.5C13 19.6716 12.3284 19 11.5 19C10.6716 19 10 19.6716 10 20.5C10 21.3284 10.6716 22 11.5 22Z" fill="black"/>
<path d="M10.5 15C11.3284 15 12 14.3284 12 13.5C12 12.6716 11.3284 12 10.5 12C9.67157 12 9 12.6716 9 13.5C9 14.3284 9.67157 15 10.5 15Z" fill="black"/>
<path d="M17 17C17.8284 17 18.5 16.3284 18.5 15.5C18.5 14.6716 17.8284 14 17 14C16.1716 14 15.5 14.6716 15.5 15.5C15.5 16.3284 16.1716 17 17 17Z" fill="black"/>
</svg>
