<svg width="32" height="32" viewBox="0 0 32 32" fill="none" xmlns="http://www.w3.org/2000/svg">
<path d="M15.2251 4.95001L4.3251 18.375C4.20765 18.5217 4.1339 18.6985 4.11233 18.8852C4.09075 19.0719 4.12221 19.2609 4.20311 19.4305C4.28401 19.6001 4.41106 19.7435 4.56971 19.8442C4.72836 19.945 4.91218 19.999 5.1001 20H26.9001C27.088 19.999 27.2718 19.945 27.4305 19.8442C27.5891 19.7435 27.7162 19.6001 27.7971 19.4305C27.878 19.2609 27.9095 19.0719 27.8879 18.8852C27.8663 18.6985 27.7926 18.5217 27.6751 18.375L16.7751 4.95001C16.6813 4.835 16.5631 4.74231 16.4291 4.67865C16.295 4.615 16.1485 4.58197 16.0001 4.58197C15.8517 4.58197 15.7052 4.615 15.5711 4.67865C15.4371 4.74231 15.3189 4.835 15.2251 4.95001Z" stroke="black" stroke-width="2" stroke-linecap="round" stroke-linejoin="round"/>
<path d="M28 26H4" stroke="black" stroke-width="2" stroke-linecap="round" stroke-linejoin="round"/>
</svg>
