<svg width="32" height="32" viewBox="0 0 32 32" fill="none" xmlns="http://www.w3.org/2000/svg">
<path d="M5 14H27V25C27 25.2652 26.8946 25.5196 26.7071 25.7071C26.5196 25.8946 26.2652 26 26 26H6C5.73478 26 5.48043 25.8946 5.29289 25.7071C5.10536 25.5196 5 25.2652 5 25V14Z" stroke="black" stroke-width="2" stroke-linecap="round" stroke-linejoin="round"/>
<path d="M4.99999 14L26.25 8.30001L25.2125 4.43751C25.1792 4.3104 25.1209 4.19119 25.041 4.08689C24.9611 3.98259 24.8612 3.89528 24.7471 3.83009C24.633 3.7649 24.5071 3.72313 24.3766 3.70724C24.2462 3.69134 24.1139 3.70163 23.9875 3.73751L4.67499 8.91251C4.54763 8.94592 4.42812 9.00415 4.32332 9.08386C4.21852 9.16358 4.13049 9.2632 4.06429 9.37702C3.99809 9.49084 3.95502 9.61661 3.93755 9.74711C3.92008 9.87762 3.92856 10.0103 3.96249 10.1375L4.99999 14Z" stroke="black" stroke-width="2" stroke-linecap="round" stroke-linejoin="round"/>
<path d="M16.2625 5.79999L22.3875 9.33749" stroke="black" stroke-width="2" stroke-linecap="round" stroke-linejoin="round"/>
<path d="M7.57495 8.13751L13.6875 11.675" stroke="black" stroke-width="2" stroke-linecap="round" stroke-linejoin="round"/>
</svg>
