<svg width="32" height="32" viewBox="0 0 32 32" fill="none" xmlns="http://www.w3.org/2000/svg">
<path d="M19.5 11C20.3284 11 21 10.3284 21 9.5C21 8.67157 20.3284 8 19.5 8C18.6716 8 18 8.67157 18 9.5C18 10.3284 18.6716 11 19.5 11Z" fill="black"/>
<path d="M2 23C30.975 29.3375 27.975 9.43754 27.15 5.62504C27.1074 5.43576 27.012 5.26245 26.8748 5.12526C26.7376 4.98807 26.5643 4.89263 26.375 4.85004C22.5625 4.02504 2.6625 1.02504 9 30" stroke="black" stroke-width="2" stroke-linecap="round" stroke-linejoin="round"/>
<path d="M25.1626 19C23.5583 19.0219 21.9658 18.7218 20.4795 18.1175C18.9932 17.5133 17.6431 16.6171 16.5091 15.482C15.3752 14.3469 14.4804 12.9959 13.8777 11.5089C13.2749 10.022 12.9765 8.42925 13.0001 6.82495" stroke="black" stroke-width="2" stroke-linecap="round" stroke-linejoin="round"/>
</svg>
