<svg width="32" height="32" viewBox="0 0 32 32" fill="none" xmlns="http://www.w3.org/2000/svg">
<path d="M13.0001 4V11.725C12.9989 11.9048 12.9515 12.0813 12.8626 12.2375L4.91258 25.4875C4.82235 25.6387 4.77363 25.8109 4.77133 25.987C4.76902 26.163 4.81323 26.3365 4.89947 26.49C4.98572 26.6434 5.11094 26.7714 5.26249 26.861C5.41404 26.9505 5.58655 26.9985 5.76258 27H26.2376C26.4136 26.9985 26.5861 26.9505 26.7377 26.861C26.8892 26.7714 27.0144 26.6434 27.1007 26.49C27.1869 26.3365 27.2311 26.163 27.2288 25.987C27.2265 25.8109 27.1778 25.6387 27.0876 25.4875L19.1376 12.2375C19.0486 12.0813 19.0013 11.9048 19.0001 11.725V4" stroke="black" stroke-width="2" stroke-linecap="round" stroke-linejoin="round"/>
<path d="M11 4H21" stroke="black" stroke-width="2" stroke-linecap="round" stroke-linejoin="round"/>
<path d="M7.82495 20.625C9.29995 19.5375 11.8375 18.925 16 21C20.4625 23.2375 23.0624 22.35 24.4874 21.1375" stroke="black" stroke-width="2" stroke-linecap="round" stroke-linejoin="round"/>
</svg>
