<svg width="32" height="32" viewBox="0 0 32 32" fill="none" xmlns="http://www.w3.org/2000/svg">
<path d="M4.97498 28.0126C4.9765 28.1886 5.02447 28.3611 5.11402 28.5126C5.20358 28.6642 5.33156 28.7894 5.48502 28.8757C5.63848 28.9619 5.81199 29.0061 5.98801 29.0038C6.16403 29.0015 6.33632 28.9528 6.48748 28.8626L27.4625 16.8501C27.6168 16.7681 27.7458 16.6457 27.8358 16.4959C27.9259 16.3462 27.9734 16.1748 27.9734 16.0001C27.9734 15.8253 27.9259 15.6539 27.8358 15.5042C27.7458 15.3544 27.6168 15.232 27.4625 15.1501L6.48748 3.13755C6.33632 3.04733 6.16403 2.9986 5.98801 2.9963C5.81199 2.994 5.63848 3.03821 5.48502 3.12445C5.33156 3.21069 5.20358 3.33592 5.11402 3.48747C5.02447 3.63902 4.9765 3.81152 4.97498 3.98755V28.0126Z" stroke="black" stroke-width="2" stroke-linecap="round" stroke-linejoin="round"/>
<path d="M5.27502 3.27502L21.9875 19.9875" stroke="black" stroke-width="2" stroke-linecap="round" stroke-linejoin="round"/>
<path d="M5.27502 28.725L21.9875 12.0125" stroke="black" stroke-width="2" stroke-linecap="round" stroke-linejoin="round"/>
</svg>
