<svg width="32" height="32" viewBox="0 0 32 32" fill="none" xmlns="http://www.w3.org/2000/svg">
<path d="M16.7124 26.4875L26.8374 16.3625C29.3249 13.8625 29.6874 9.77499 27.3374 7.16249C26.7481 6.50413 26.0307 5.97284 25.2291 5.60109C24.4274 5.22935 23.5584 5.02494 22.6752 5.00038C21.7919 4.97581 20.9129 5.13159 20.0918 5.4582C19.2708 5.78482 18.525 6.2754 17.8999 6.89999L15.9999 8.81249L14.3624 7.16249C11.8624 4.67499 7.77493 4.31249 5.16243 6.66249C4.50407 7.25185 3.97278 7.96925 3.60103 8.77086C3.22929 9.57248 3.02488 10.4415 3.00032 11.3248C2.97575 12.208 3.13153 13.087 3.45814 13.9081C3.78476 14.7291 4.27534 15.4749 4.89993 16.1L15.2874 26.4875C15.477 26.6753 15.7331 26.7806 15.9999 26.7806C16.2668 26.7806 16.5228 26.6753 16.7124 26.4875V26.4875Z" stroke="black" stroke-width="2" stroke-linecap="round" stroke-linejoin="round"/>
</svg>
