<svg width="32" height="32" viewBox="0 0 32 32" fill="none" xmlns="http://www.w3.org/2000/svg">
<path d="M15.2875 8.92496L17.7625 6.44996C18.8104 5.49487 20.186 4.98026 21.6035 5.01307C23.021 5.04589 24.3713 5.62361 25.3738 6.62617C26.3764 7.62874 26.9541 8.97905 26.9869 10.3965C27.0198 11.814 26.5051 13.1896 25.55 14.2375L22.0125 17.7625C21.5027 18.2742 20.8969 18.6802 20.2298 18.9573C19.5627 19.2344 18.8474 19.377 18.125 19.377C17.4027 19.377 16.6874 19.2344 16.0203 18.9573C15.3532 18.6802 14.7474 18.2742 14.2375 17.7625" stroke="black" stroke-width="2" stroke-linecap="round" stroke-linejoin="round"/>
<path d="M16.7126 23.0749L14.2376 25.5499C13.1897 26.505 11.8141 27.0196 10.3966 26.9868C8.97917 26.954 7.62886 26.3763 6.62629 25.3737C5.62373 24.3712 5.04601 23.0209 5.0132 21.6034C4.98038 20.1859 5.49499 18.8103 6.45008 17.7624L9.98758 14.2374C10.4974 13.7257 11.1033 13.3197 11.7704 13.0426C12.4375 12.7655 13.1527 12.6229 13.8751 12.6229C14.5974 12.6229 15.3127 12.7655 15.9798 13.0426C16.6469 13.3197 17.2528 13.7257 17.7626 14.2374" stroke="black" stroke-width="2" stroke-linecap="round" stroke-linejoin="round"/>
</svg>
