<svg width="32" height="32" viewBox="0 0 32 32" fill="none" xmlns="http://www.w3.org/2000/svg">
<path d="M15.9125 11.875C16.4699 11.3233 17.2206 11.0106 18.0049 11.0036C18.7892 10.9966 19.5453 11.2958 20.1125 11.8375C21.325 13 21.3 14.975 20.1 16.175L11.725 24.2875C11.5355 24.4755 11.4279 24.7306 11.4256 24.9975C11.4233 25.2643 11.5264 25.5213 11.7125 25.7125L15.3 29.3C15.4874 29.4857 15.7399 29.591 16.0037 29.5933C16.2675 29.5956 16.5218 29.4949 16.7125 29.3125L25.0125 21.1625C28.9125 17.2625 29.025 10.9125 25.1625 6.98754C24.237 6.04615 23.1343 5.29733 21.9179 4.78427C20.7015 4.27122 19.3956 4.00408 18.0755 3.99827C16.7554 3.99246 15.4472 4.24809 14.2264 4.75042C13.0055 5.25275 11.8962 5.99184 10.9625 6.92504L2.7 15.2875C2.51298 15.475 2.40796 15.729 2.40796 15.9938C2.40796 16.2586 2.51298 16.5126 2.7 16.7L6.2875 20.2875C6.47873 20.4737 6.73572 20.5768 7.00257 20.5744C7.26942 20.5721 7.52456 20.4645 7.7125 20.275L15.9125 11.875Z" stroke="black" stroke-width="2" stroke-linecap="round" stroke-linejoin="round"/>
<path d="M15.85 20.3L20.825 25.275" stroke="black" stroke-width="2" stroke-linecap="round" stroke-linejoin="round"/>
<path d="M6.75 11.2L11.7125 16.175" stroke="black" stroke-width="2" stroke-linecap="round" stroke-linejoin="round"/>
</svg>
