<svg width="32" height="32" viewBox="0 0 32 32" fill="none" xmlns="http://www.w3.org/2000/svg">
<path d="M4.67498 5.94998L12 27.1125C12.3125 28.025 13.6125 28 13.9 27.075L16.85 17.5C16.8945 17.3435 16.979 17.2012 17.0951 17.0872C17.2113 16.9733 17.3551 16.8915 17.5125 16.85L27.075 13.9C28 13.6125 28.025 12.3125 27.1125 12L5.94998 4.67498C5.77217 4.61249 5.58032 4.60152 5.39655 4.64333C5.21278 4.68514 5.04457 4.77803 4.9113 4.9113C4.77803 5.04457 4.68514 5.21278 4.64333 5.39655C4.60152 5.58032 4.61249 5.77217 4.67498 5.94998V5.94998Z" stroke="black" stroke-width="2" stroke-linecap="round" stroke-linejoin="round"/>
</svg>
