<svg width="32" height="32" viewBox="0 0 32 32" fill="none" xmlns="http://www.w3.org/2000/svg">
<path d="M22.3499 8.96245C22.3444 9.7547 22.1762 10.5374 21.8558 11.262C21.5354 11.9866 21.0697 12.6377 20.4874 13.175C19.2604 14.2931 17.6601 14.9129 15.9999 14.9129C14.3398 14.9129 12.7395 14.2931 11.5124 13.175C10.9265 12.6408 10.4584 11.9903 10.1381 11.2649C9.81777 10.5396 9.65234 9.75537 9.65234 8.96245C9.65234 8.16954 9.81777 7.38535 10.1381 6.66C10.4584 5.93466 10.9265 5.28411 11.5124 4.74996C12.7355 3.62378 14.3373 2.99866 15.9999 2.99866C17.6625 2.99866 19.2643 3.62378 20.4874 4.74996C21.0715 5.28582 21.5384 5.93665 21.8589 6.66157C22.1794 7.38649 22.3466 8.16985 22.3499 8.96245V8.96245Z" stroke="black" stroke-width="2" stroke-linecap="round" stroke-linejoin="round"/>
<path d="M23.4999 21.9625C23.4953 22.8985 23.2976 23.8235 22.919 24.6796C22.5405 25.5356 21.9893 26.3043 21.2999 26.9375C19.854 28.2648 17.9626 29.0012 15.9999 29.0012C14.0371 29.0012 12.1458 28.2648 10.6999 26.9375C10.0066 26.3061 9.45273 25.5369 9.07375 24.6791C8.69477 23.8214 8.49902 22.894 8.49902 21.9562C8.49902 21.0185 8.69477 20.0911 9.07375 19.2333C9.45273 18.3756 10.0066 17.6064 10.6999 16.975C12.1458 15.6477 14.0371 14.9113 15.9999 14.9113C17.9626 14.9113 19.854 15.6477 21.2999 16.975C21.9908 17.6096 22.5429 18.3803 22.9215 19.2386C23.3001 20.097 23.4971 21.0244 23.4999 21.9625Z" stroke="black" stroke-width="2" stroke-linecap="round" stroke-linejoin="round"/>
</svg>
