<svg width="32" height="32" viewBox="0 0 32 32" fill="none" xmlns="http://www.w3.org/2000/svg">
<path d="M18.7501 12.75C18.7464 13.3828 18.5236 13.9947 18.1196 14.4817C17.7157 14.9687 17.1555 15.3007 16.5343 15.4213C15.9131 15.5419 15.2694 15.4435 14.7125 15.143C14.1557 14.8425 13.7202 14.3584 13.48 13.773C13.2398 13.1876 13.2099 12.5371 13.3952 11.9321C13.5806 11.3271 13.9698 10.805 14.4967 10.4546C15.0235 10.1042 15.6555 9.94708 16.2851 10.0101C16.9147 10.073 17.5031 10.3522 17.9501 10.8C18.4617 11.3203 18.7489 12.0204 18.7501 12.75Z" stroke="black" stroke-width="2" stroke-linecap="round" stroke-linejoin="round"/>
<path d="M19.2499 18.75C19.2478 19.4985 18.9864 20.2232 18.5102 20.8007C18.034 21.3782 17.3724 21.7729 16.638 21.9175C15.9036 22.0622 15.1418 21.9479 14.4821 21.5941C13.8225 21.2403 13.3059 20.6688 13.0201 19.977C12.7344 19.2852 12.6971 18.5157 12.9148 17.7995C13.1325 17.0834 13.5916 16.4647 14.214 16.049C14.8365 15.6332 15.5837 15.4459 16.3287 15.519C17.0736 15.5922 17.7702 15.9211 18.2999 16.45C18.6021 16.7518 18.8417 17.1104 19.0047 17.5051C19.1677 17.8998 19.2511 18.3229 19.2499 18.75Z" stroke="black" stroke-width="2" stroke-linecap="round" stroke-linejoin="round"/>
<path d="M26 5H6C5.44772 5 5 5.44772 5 6V26C5 26.5523 5.44772 27 6 27H26C26.5523 27 27 26.5523 27 26V6C27 5.44772 26.5523 5 26 5Z" stroke="black" stroke-width="2" stroke-linecap="round" stroke-linejoin="round"/>
</svg>
