<svg width="32" height="32" viewBox="0 0 32 32" fill="none" xmlns="http://www.w3.org/2000/svg">
<path d="M27.4375 15.125L6.32499 3.30002C6.14716 3.20177 5.94361 3.16002 5.74146 3.18033C5.5393 3.20065 5.34813 3.28205 5.19339 3.41371C5.03866 3.54538 4.92769 3.72105 4.87528 3.91734C4.82287 4.11364 4.83149 4.32124 4.89999 4.51251L8.87499 15.6625C8.96256 15.879 8.96256 16.121 8.87499 16.3375L4.89999 27.4875C4.83149 27.6788 4.82287 27.8864 4.87528 28.0827C4.92769 28.279 5.03866 28.4547 5.19339 28.5863C5.34813 28.718 5.5393 28.7994 5.74146 28.8197C5.94361 28.84 6.14716 28.7983 6.32499 28.7L27.4375 16.875C27.5938 16.7885 27.7241 16.6618 27.8148 16.5079C27.9055 16.354 27.9534 16.1786 27.9534 16C27.9534 15.8214 27.9055 15.646 27.8148 15.4921C27.7241 15.3383 27.5938 15.2115 27.4375 15.125V15.125Z" stroke="black" stroke-width="2" stroke-linecap="round" stroke-linejoin="round"/>
<path d="M9 16H17" stroke="black" stroke-width="2" stroke-linecap="round" stroke-linejoin="round"/>
</svg>
