<svg width="32" height="32" viewBox="0 0 32 32" fill="none" xmlns="http://www.w3.org/2000/svg">
<path d="M1.81243 15.1625L12.9624 7.9875C13.1141 7.89084 13.289 7.83685 13.4687 7.83124C13.6485 7.82562 13.8264 7.86858 13.9838 7.95559C14.1412 8.0426 14.2722 8.17043 14.363 8.32564C14.4538 8.48084 14.5011 8.65767 14.4999 8.8375V23.1625C14.5011 23.3423 14.4538 23.5192 14.363 23.6744C14.2722 23.8296 14.1412 23.9574 13.9838 24.0444C13.8264 24.1314 13.6485 24.1744 13.4687 24.1688C13.289 24.1631 13.1141 24.1092 12.9624 24.0125L1.81243 16.8375C1.67036 16.7487 1.5532 16.6253 1.47198 16.4788C1.39076 16.3323 1.34814 16.1675 1.34814 16C1.34814 15.8325 1.39076 15.6677 1.47198 15.5212C1.5532 15.3747 1.67036 15.2513 1.81243 15.1625V15.1625Z" stroke="black" stroke-width="2" stroke-linecap="round" stroke-linejoin="round"/>
<path d="M15.8124 15.1625L26.9624 7.9875C27.1141 7.89084 27.289 7.83685 27.4687 7.83124C27.6485 7.82562 27.8264 7.86858 27.9838 7.95559C28.1412 8.0426 28.2722 8.17043 28.363 8.32564C28.4538 8.48084 28.5011 8.65767 28.4999 8.8375V23.1625C28.5011 23.3423 28.4538 23.5192 28.363 23.6744C28.2722 23.8296 28.1412 23.9574 27.9838 24.0444C27.8264 24.1314 27.6485 24.1744 27.4687 24.1688C27.289 24.1631 27.1141 24.1092 26.9624 24.0125L15.8124 16.8375C15.6704 16.7487 15.5532 16.6253 15.472 16.4788C15.3908 16.3323 15.3481 16.1675 15.3481 16C15.3481 15.8325 15.3908 15.6677 15.472 15.5212C15.5532 15.3747 15.6704 15.2513 15.8124 15.1625V15.1625Z" stroke="black" stroke-width="2" stroke-linecap="round" stroke-linejoin="round"/>
</svg>
