<svg width="32" height="32" viewBox="0 0 32 32" fill="none" xmlns="http://www.w3.org/2000/svg">
<path d="M18 28H14" stroke="black" stroke-width="2" stroke-linecap="round" stroke-linejoin="round"/>
<path d="M15.3749 2.47496C12.9999 4.37496 5.06243 11.975 11.9999 24H19.9999C26.7999 11.975 18.9749 4.38746 16.6249 2.47496C16.4496 2.32851 16.2284 2.24829 15.9999 2.24829C15.7715 2.24829 15.5503 2.32851 15.3749 2.47496Z" stroke="black" stroke-width="2" stroke-linecap="round" stroke-linejoin="round"/>
<path d="M9.23744 13.925L5.31244 18.625C5.21356 18.7404 5.14379 18.8778 5.10899 19.0257C5.07419 19.1736 5.07538 19.3277 5.11244 19.475L6.64994 26.4375C6.68704 26.603 6.76563 26.7564 6.87831 26.8832C6.99099 27.0099 7.13405 27.1059 7.29406 27.1622C7.45407 27.2184 7.62575 27.2331 7.79297 27.2047C7.96018 27.1763 8.11744 27.1059 8.24994 27L11.9999 24" stroke="black" stroke-width="2" stroke-linecap="round" stroke-linejoin="round"/>
<path d="M22.6875 13.825L26.6875 18.625C26.7864 18.7403 26.8561 18.8777 26.8909 19.0256C26.9257 19.1735 26.9246 19.3276 26.8875 19.475L25.35 26.4375C25.3129 26.6029 25.2343 26.7563 25.1216 26.8831C25.009 27.0098 24.8659 27.1058 24.7059 27.1621C24.5459 27.2184 24.3742 27.233 24.207 27.2046C24.0398 27.1763 23.8825 27.1058 23.75 27L20 24" stroke="black" stroke-width="2" stroke-linecap="round" stroke-linejoin="round"/>
<path d="M16 13.5C16.8284 13.5 17.5 12.8284 17.5 12C17.5 11.1716 16.8284 10.5 16 10.5C15.1716 10.5 14.5 11.1716 14.5 12C14.5 12.8284 15.1716 13.5 16 13.5Z" fill="black"/>
</svg>
