<svg width="32" height="32" viewBox="0 0 32 32" fill="none" xmlns="http://www.w3.org/2000/svg">
<path d="M6 18C7.0515 17.9967 8.09327 18.2013 9.06537 18.6022C10.0375 19.0031 10.9207 19.5922 11.6642 20.3358C12.4077 21.0793 12.9969 21.9625 13.3978 22.9346C13.7986 23.9067 14.0033 24.9485 14 26" stroke="black" stroke-width="2" stroke-linecap="round" stroke-linejoin="round"/>
<path d="M6 12C9.71303 12 13.274 13.475 15.8995 16.1005C18.525 18.726 20 22.287 20 26" stroke="black" stroke-width="2" stroke-linecap="round" stroke-linejoin="round"/>
<path d="M6 5.99997C8.62689 5.99503 11.2287 6.51057 13.6553 7.5168C16.0818 8.52303 18.285 10 20.1375 11.8625C22 13.715 23.4769 15.9182 24.4832 18.3447C25.4894 20.7712 26.0049 23.3731 26 26" stroke="black" stroke-width="2" stroke-linecap="round" stroke-linejoin="round"/>
<path d="M6.5 27C7.32843 27 8 26.3284 8 25.5C8 24.6716 7.32843 24 6.5 24C5.67157 24 5 24.6716 5 25.5C5 26.3284 5.67157 27 6.5 27Z" fill="black"/>
</svg>
