<svg width="32" height="32" viewBox="0 0 32 32" fill="none" xmlns="http://www.w3.org/2000/svg">
<path d="M7.5 30C8.32843 30 9 29.3284 9 28.5C9 27.6716 8.32843 27 7.5 27C6.67157 27 6 27.6716 6 28.5C6 29.3284 6.67157 30 7.5 30Z" fill="black"/>
<path d="M11 26.5C11.8284 26.5 12.5 25.8284 12.5 25C12.5 24.1716 11.8284 23.5 11 23.5C10.1716 23.5 9.5 24.1716 9.5 25C9.5 25.8284 10.1716 26.5 11 26.5Z" fill="black"/>
<path d="M3.5 26C4.32843 26 5 25.3284 5 24.5C5 23.6716 4.32843 23 3.5 23C2.67157 23 2 23.6716 2 24.5C2 25.3284 2.67157 26 3.5 26Z" fill="black"/>
<path d="M7 22.5C7.82843 22.5 8.5 21.8284 8.5 21C8.5 20.1716 7.82843 19.5 7 19.5C6.17157 19.5 5.5 20.1716 5.5 21C5.5 21.8284 6.17157 22.5 7 22.5Z" fill="black"/>
<path d="M30.9999 5.00001H27.4124C27.2826 4.99955 27.1539 5.02471 27.0338 5.07404C26.9137 5.12338 26.8045 5.19591 26.7124 5.28751L22.9999 9.00001L6.91244 11.675C6.73032 11.7051 6.56009 11.7851 6.42062 11.906C6.28114 12.0269 6.17786 12.1841 6.12221 12.3601C6.06656 12.5361 6.06071 12.7241 6.10532 12.9032C6.14993 13.0824 6.24325 13.2457 6.37494 13.375L18.6249 25.625C18.7543 25.7567 18.9176 25.85 19.0967 25.8946C19.2758 25.9392 19.4638 25.9334 19.6398 25.8777C19.8158 25.8221 19.973 25.7188 20.0939 25.5793C20.2148 25.4399 20.2948 25.2696 20.3249 25.0875L22.9999 9.00001" stroke="black" stroke-width="2" stroke-linecap="round" stroke-linejoin="round"/>
</svg>
