<svg width="32" height="32" viewBox="0 0 32 32" fill="none" xmlns="http://www.w3.org/2000/svg">
<path d="M1.00023 20.9997L3.78769 11.7123C3.84974 11.5056 3.97701 11.3245 4.15049 11.1961C4.32396 11.0677 4.53434 10.9988 4.75017 10.9998H15.25C15.4658 10.9988 15.6762 11.0677 15.8497 11.1961C16.0232 11.3245 16.1504 11.5056 16.2125 11.7123L19 20.9997" stroke="black" stroke-width="2" stroke-linecap="round" stroke-linejoin="round"/>
<path d="M19.9999 10.9998H21.2499C21.4658 10.9988 21.6761 11.0677 21.8496 11.1961C22.0231 11.3245 22.1504 11.5056 22.2124 11.7123L24.9999 20.9997" stroke="black" stroke-width="2" stroke-linecap="round" stroke-linejoin="round"/>
<path d="M25.9998 10.9998H27.2498C27.4657 10.9988 27.676 11.0677 27.8495 11.1961C28.023 11.3245 28.1503 11.5056 28.2123 11.7123L30.9998 20.9997" stroke="black" stroke-width="2" stroke-linecap="round" stroke-linejoin="round"/>
<path d="M1.00023 20.9997H30.9998" stroke="black" stroke-width="2" stroke-linecap="round" stroke-linejoin="round"/>
</svg>
