<svg width="32" height="32" viewBox="0 0 32 32" fill="none" xmlns="http://www.w3.org/2000/svg">
<path d="M15.3375 3.23738L5.25001 5.24988L3.23751 15.3374C3.20597 15.4984 3.21456 15.6648 3.26252 15.8218C3.31048 15.9787 3.39633 16.1215 3.51251 16.2374L16.5625 29.2874C16.6545 29.3815 16.7643 29.4563 16.8856 29.5073C17.0069 29.5584 17.1372 29.5847 17.2688 29.5847C17.4003 29.5847 17.5306 29.5584 17.6519 29.5073C17.7732 29.4563 17.883 29.3815 17.975 29.2874L29.2875 17.9749C29.3816 17.8829 29.4564 17.7731 29.5075 17.6518C29.5585 17.5305 29.5848 17.4002 29.5848 17.2686C29.5848 17.137 29.5585 17.0068 29.5075 16.8855C29.4564 16.7642 29.3816 16.6544 29.2875 16.5624L16.2375 3.51239C16.1216 3.39621 15.9788 3.31036 15.8219 3.2624C15.6649 3.21444 15.4986 3.20585 15.3375 3.23738V3.23738Z" stroke="black" stroke-width="2" stroke-linecap="round" stroke-linejoin="round"/>
<path d="M10.5 12C11.3284 12 12 11.3284 12 10.5C12 9.67157 11.3284 9 10.5 9C9.67157 9 9 9.67157 9 10.5C9 11.3284 9.67157 12 10.5 12Z" fill="black"/>
</svg>
