<svg width="32" height="32" viewBox="0 0 32 32" fill="none" xmlns="http://www.w3.org/2000/svg">
<path d="M16 16L28 4" stroke="black" stroke-width="2" stroke-linecap="round" stroke-linejoin="round"/>
<path d="M24.4875 7.51251C22.3601 5.3787 19.5091 4.12133 16.4989 3.98926C13.4887 3.85719 10.5385 4.86004 8.2324 6.79933C5.92628 8.73862 4.43225 11.473 4.04601 14.4613C3.65978 17.4496 4.40948 20.474 6.14675 22.9359C7.88401 25.3978 10.4822 27.1177 13.4271 27.7554C16.372 28.393 19.449 27.9018 22.049 26.379C24.649 24.8562 26.5826 22.4128 27.4671 19.5324C28.3516 16.652 28.1224 13.5445 26.825 10.825" stroke="black" stroke-width="2" stroke-linecap="round" stroke-linejoin="round"/>
<path d="M20.2376 11.7625C19.2466 10.7743 17.9408 10.1645 16.547 10.0389C15.1531 9.91333 13.7594 10.28 12.6077 11.0751C11.4561 11.8703 10.6194 13.0437 10.2429 14.3916C9.86646 15.7395 9.97404 17.1767 10.547 18.4535C11.1199 19.7303 12.122 20.7661 13.3792 21.3809C14.6363 21.9958 16.0692 22.1508 17.4288 21.8192C18.7884 21.4875 19.9888 20.69 20.8216 19.5653C21.6545 18.4406 22.067 17.0597 21.9876 15.6625" stroke="black" stroke-width="2" stroke-linecap="round" stroke-linejoin="round"/>
</svg>
