<svg width="32" height="32" viewBox="0 0 32 32" fill="none" xmlns="http://www.w3.org/2000/svg">
<path d="M8 14V5C8 4.73478 8.10536 4.48043 8.29289 4.29289C8.48043 4.10536 8.73478 4 9 4H23C23.2652 4 23.5196 4.10536 23.7071 4.29289C23.8946 4.48043 24 4.73478 24 5V14" stroke="black" stroke-width="2" stroke-linecap="round" stroke-linejoin="round"/>
<path d="M12 8H14" stroke="black" stroke-width="2" stroke-linecap="round" stroke-linejoin="round"/>
<path d="M27 14C27 16.9174 25.8411 19.7153 23.7782 21.7782C21.7153 23.8411 18.9174 25 16 25C13.0826 25 10.2847 23.8411 8.22183 21.7782C6.15893 19.7153 5 16.9174 5 14H27Z" stroke="black" stroke-width="2" stroke-linecap="round" stroke-linejoin="round"/>
<path d="M11.7001 24.125L11.1626 27.8625C11.143 28.0038 11.1538 28.1477 11.1944 28.2845C11.235 28.4213 11.3044 28.5478 11.3979 28.6556C11.4915 28.7633 11.607 28.8498 11.7367 28.9092C11.8664 28.9686 12.0074 28.9996 12.1501 29H19.8501C19.9928 28.9996 20.1337 28.9686 20.2634 28.9092C20.3932 28.8498 20.5087 28.7633 20.6022 28.6556C20.6958 28.5478 20.7652 28.4213 20.8057 28.2845C20.8463 28.1477 20.8572 28.0038 20.8376 27.8625L20.3001 24.125" stroke="black" stroke-width="2" stroke-linecap="round" stroke-linejoin="round"/>
</svg>
