<svg width="32" height="32" viewBox="0 0 32 32" fill="none" xmlns="http://www.w3.org/2000/svg">
<path d="M11.6125 20.7625C12.7926 19.6303 14.3647 18.9982 16 18.9982C17.6354 18.9982 19.2075 19.6303 20.3875 20.7625" stroke="black" stroke-width="2" stroke-linecap="round" stroke-linejoin="round"/>
<path d="M28 7L22 13" stroke="black" stroke-width="2" stroke-linecap="round" stroke-linejoin="round"/>
<path d="M28 13L22 7" stroke="black" stroke-width="2" stroke-linecap="round" stroke-linejoin="round"/>
<path d="M3.13745 12.2749C6.55802 8.88386 11.1834 6.98698 16 6.99994C16.6682 6.99969 17.3359 7.03725 18 7.11244" stroke="black" stroke-width="2" stroke-linecap="round" stroke-linejoin="round"/>
<path d="M7.375 16.5125C9.67397 14.2496 12.7742 12.987 16 13C16.6701 12.9967 17.3392 13.0511 18 13.1625" stroke="black" stroke-width="2" stroke-linecap="round" stroke-linejoin="round"/>
<path d="M16 26.5C16.8284 26.5 17.5 25.8284 17.5 25C17.5 24.1716 16.8284 23.5 16 23.5C15.1716 23.5 14.5 24.1716 14.5 25C14.5 25.8284 15.1716 26.5 16 26.5Z" fill="black"/>
</svg>
