<svg width="32" height="32" viewBox="0 0 32 32" fill="none" xmlns="http://www.w3.org/2000/svg">
<path d="M26.1875 10.05L21.9875 14L25.9875 25L22.9875 28L17.0125 19.25L13.9875 22V25L10.9875 28L9.21255 22.7625L3.98755 21L6.98755 18H9.98755L12.9875 15L3.98755 8.99995L6.98755 5.99995L17.9875 9.99995L21.9501 5.81245L21.8625 5.87495C22.4261 5.31137 23.1905 4.99475 23.9875 4.99475C24.7846 4.99475 25.549 5.31137 26.1125 5.87495C26.6761 6.43854 26.9928 7.20293 26.9928 7.99995C26.9928 8.79698 26.6761 9.56137 26.1125 10.125L26.1875 10.05Z" stroke="black" stroke-width="2" stroke-linecap="round" stroke-linejoin="round"/>
</svg>
