<svg width="32" height="32" viewBox="0 0 32 32" fill="none" xmlns="http://www.w3.org/2000/svg">
<path d="M11 18.5C11 16.8189 11.4985 15.1755 12.4325 13.7777C13.3665 12.3798 14.694 11.2904 16.2472 10.647C17.8004 10.0037 19.5094 9.83535 21.1583 10.1633C22.8071 10.4913 24.3217 11.3008 25.5104 12.4896C26.6992 13.6783 27.5087 15.1929 27.8367 16.8417C28.1647 18.4906 27.9963 20.1996 27.353 21.7528C26.7096 23.306 25.6202 24.6335 24.2223 25.5675C22.8245 26.5015 21.1811 27 19.5 27H9.5C8.04131 27 6.64236 26.4205 5.61091 25.3891C4.57946 24.3576 4 22.9587 4 21.5C4 20.0413 4.57946 18.6424 5.61091 17.6109C6.64236 16.5795 8.04131 16 9.5 16C10.1086 15.9969 10.7133 16.0983 11.2875 16.3" stroke="black" stroke-width="2" stroke-linecap="round" stroke-linejoin="round"/>
<path d="M5.87495 17.3625C4.71251 16.8692 3.6831 16.1083 2.87066 15.1416C2.05822 14.1749 1.48576 13.0299 1.19995 11.8V11.8C1.79116 11.9302 2.39456 11.9973 2.99995 12C5.12067 11.9966 7.15358 11.1527 8.65315 9.65315C10.1527 8.15358 10.9966 6.12067 11 3.99995C10.9973 3.39456 10.9302 2.79116 10.8 2.19995C12.5633 2.60714 14.1364 3.60017 15.2625 5.01687C16.3886 6.43357 17.0011 8.19022 17 9.99995C17 10.125 17 10.25 16.9875 10.375" stroke="black" stroke-width="2" stroke-linecap="round" stroke-linejoin="round"/>
</svg>
