<svg width="32" height="32" viewBox="0 0 32 32" fill="none" xmlns="http://www.w3.org/2000/svg">
<path d="M12 1.99999V5.99998" stroke="black" stroke-width="2" stroke-linecap="round" stroke-linejoin="round"/>
<path d="M16 1.99999V5.99998" stroke="black" stroke-width="2" stroke-linecap="round" stroke-linejoin="round"/>
<path d="M20 1.99999V5.99998" stroke="black" stroke-width="2" stroke-linecap="round" stroke-linejoin="round"/>
<path d="M6.00006 9.99996H26C26.2652 9.99996 26.5196 10.1053 26.7071 10.2929C26.8946 10.4804 27 10.7347 27 11V22.9999C27.0016 23.3943 26.9252 23.7852 26.775 24.1499C26.6248 24.5146 26.4039 24.846 26.125 25.1249C25.8461 25.4038 25.5147 25.6247 25.15 25.7749C24.7853 25.9251 24.3944 26.0016 24 25.9999H8.00006C7.60563 26.0016 7.21478 25.9251 6.85006 25.7749C6.48534 25.6247 6.15396 25.4038 5.87506 25.1249C5.59615 24.846 5.37524 24.5146 5.22506 24.1499C5.07488 23.7852 4.99841 23.3943 5.00007 22.9999V11C5.00007 10.7347 5.10542 10.4804 5.29296 10.2929C5.4805 10.1053 5.73485 9.99996 6.00006 9.99996Z" stroke="black" stroke-width="2" stroke-linecap="round" stroke-linejoin="round"/>
<path d="M30.9999 12L27 14.9999" stroke="black" stroke-width="2" stroke-linecap="round" stroke-linejoin="round"/>
<path d="M1.00006 12L5.00004 14.9999" stroke="black" stroke-width="2" stroke-linecap="round" stroke-linejoin="round"/>
</svg>
