<svg width="32" height="32" viewBox="0 0 32 32" fill="none" xmlns="http://www.w3.org/2000/svg">
<path d="M15.2885 3.70994L11.6999 7.29851C11.3094 7.68903 11.3094 8.3222 11.6999 8.71272L15.2858 12.2986C15.6763 12.6892 16.3095 12.6892 16.7 12.2986L20.2886 8.71007C20.6791 8.31955 20.6791 7.68638 20.2886 7.29586L16.7027 3.70994C16.3122 3.31942 15.679 3.31942 15.2885 3.70994Z" stroke="black" stroke-width="2" stroke-linecap="round" stroke-linejoin="round"/>
<path d="M23.2897 11.7099L19.7011 15.2985C19.3106 15.689 19.3106 16.3222 19.7011 16.7127L23.287 20.2986C23.6776 20.6892 24.3107 20.6892 24.7013 20.2986L28.2898 16.7101C28.6803 16.3195 28.6803 15.6864 28.2898 15.2959L24.7039 11.7099C24.3134 11.3194 23.6802 11.3194 23.2897 11.7099Z" stroke="black" stroke-width="2" stroke-linecap="round" stroke-linejoin="round"/>
<path d="M7.28847 11.6987L3.6999 15.2873C3.30938 15.6778 3.30938 16.311 3.6999 16.7015L7.28582 20.2874C7.67634 20.6779 8.30951 20.6779 8.70003 20.2874L12.2886 16.6988C12.6791 16.3083 12.6791 15.6752 12.2886 15.2846L8.70269 11.6987C8.31216 11.3082 7.679 11.3082 7.28847 11.6987Z" stroke="black" stroke-width="2" stroke-linecap="round" stroke-linejoin="round"/>
<path d="M15.2897 19.6987L11.7011 23.2873C11.3106 23.6778 11.3106 24.311 11.7011 24.7015L15.287 28.2874C15.6776 28.6779 16.3107 28.6779 16.7013 28.2874L20.2898 24.6988C20.6803 24.3083 20.6803 23.6752 20.2898 23.2846L16.7039 19.6987C16.3134 19.3082 15.6802 19.3082 15.2897 19.6987Z" stroke="black" stroke-width="2" stroke-linecap="round" stroke-linejoin="round"/>
</svg>
