<svg width="32" height="32" viewBox="0 0 32 32" fill="none" xmlns="http://www.w3.org/2000/svg">
<path d="M22.475 14.475L23.0875 15.0875C23.4585 15.464 23.6665 15.9714 23.6665 16.5C23.6665 17.0286 23.4585 17.5359 23.0875 17.9125L22.2125 18.7875C22.1195 18.882 22.0086 18.957 21.8862 19.0082C21.7639 19.0594 21.6326 19.0858 21.5 19.0858C21.3674 19.0858 21.2361 19.0594 21.1138 19.0082C20.9915 18.957 20.8806 18.882 20.7875 18.7875L13.2125 11.2125C13.118 11.1194 13.043 11.0085 12.9918 10.8862C12.9406 10.7639 12.9142 10.6326 12.9142 10.5C12.9142 10.3674 12.9406 10.2361 12.9918 10.1138C13.043 9.99143 13.118 9.88052 13.2125 9.78747L14.0875 8.91247C14.464 8.54146 14.9714 8.3335 15.5 8.3335C16.0286 8.3335 16.536 8.54146 16.9125 8.91247L17.525 9.52497L20.975 6.07497C22.325 4.72497 24.525 4.64997 25.9 5.96247C26.2394 6.28351 26.5112 6.66927 26.6992 7.09699C26.8871 7.52471 26.9876 7.98574 26.9946 8.4529C27.0016 8.92006 26.915 9.38389 26.7399 9.81704C26.5647 10.2502 26.3047 10.6439 25.975 10.975L22.475 14.475Z" stroke="black" stroke-width="2" stroke-linecap="round" stroke-linejoin="round"/>
<path d="M19.825 17.825L12.825 24.825C12.3311 25.325 11.713 25.6845 11.0343 25.8669C10.3555 26.0492 9.64052 26.0477 8.96254 25.8625L6.03754 27.1375C5.85512 27.2176 5.65296 27.2413 5.45698 27.2056C5.26099 27.17 5.08012 27.0767 4.93754 26.9375V26.9375C4.83384 26.8355 4.76387 26.7041 4.73706 26.5611C4.71024 26.4181 4.72786 26.2703 4.78754 26.1375L6.13754 23.0375C5.9524 22.3596 5.95091 21.6445 6.13323 20.9658C6.31555 20.2871 6.67511 19.669 7.17504 19.175L14.175 12.175" stroke="black" stroke-width="2" stroke-linecap="round" stroke-linejoin="round"/>
<path d="M6.53748 20H17.6625" stroke="black" stroke-width="2" stroke-linecap="round" stroke-linejoin="round"/>
</svg>
