<svg width="32" height="32" viewBox="0 0 32 32" fill="none" xmlns="http://www.w3.org/2000/svg">
<path d="M16 22C19.3137 22 22 19.3137 22 16C22 12.6863 19.3137 10 16 10C12.6863 10 10 12.6863 10 16C10 19.3137 12.6863 22 16 22Z" stroke="black" stroke-width="2" stroke-linecap="round" stroke-linejoin="round"/>
<path d="M22.9625 8.13745C23.2791 8.42912 23.5791 8.72912 23.8624 9.03745L27.275 9.52495C27.831 10.4906 28.2595 11.5242 28.5499 12.6L26.475 15.3625C26.475 15.3625 26.5125 16.2125 26.475 16.6375L28.5499 19.4C28.2609 20.4762 27.8322 21.5099 27.275 22.475L23.8624 22.9625C23.8624 22.9625 23.275 23.5749 22.9625 23.8624L22.475 27.275C21.5093 27.831 20.4757 28.2595 19.4 28.5499L16.6375 26.475C16.2133 26.5125 15.7866 26.5125 15.3625 26.475L12.6 28.5499C11.5237 28.2609 10.49 27.8322 9.52495 27.275L9.03745 23.8624C8.72912 23.5708 8.42912 23.2708 8.13745 22.9625L4.72495 22.475C4.16893 21.5093 3.74036 20.4757 3.44995 19.4L5.52495 16.6375C5.52495 16.6375 5.48745 15.7875 5.52495 15.3625L3.44995 12.6C3.73902 11.5237 4.16765 10.49 4.72495 9.52495L8.13745 9.03745C8.42912 8.72912 8.72912 8.42912 9.03745 8.13745L9.52495 4.72495C10.4906 4.16893 11.5242 3.74036 12.6 3.44995L15.3625 5.52495C15.7866 5.48744 16.2133 5.48744 16.6375 5.52495L19.4 3.44995C20.4762 3.73902 21.5099 4.16765 22.475 4.72495L22.9625 8.13745Z" stroke="black" stroke-width="2" stroke-linecap="round" stroke-linejoin="round"/>
</svg>
