<svg width="32" height="32" viewBox="0 0 32 32" fill="none" xmlns="http://www.w3.org/2000/svg">
<path d="M6.10001 12C5.95083 11.9997 5.80361 11.966 5.66914 11.9014C5.53467 11.8368 5.41636 11.7429 5.32287 11.6267C5.22939 11.5104 5.1631 11.3747 5.12886 11.2295C5.09463 11.0843 5.09331 10.9333 5.12501 10.7875C5.92501 6.9375 10.4875 4 16 4C21.5125 4 26.075 6.9375 26.875 10.7875C26.9067 10.9333 26.9054 11.0843 26.8712 11.2295C26.8369 11.3747 26.7706 11.5104 26.6771 11.6267C26.5837 11.7429 26.4654 11.8368 26.3309 11.9014C26.1964 11.966 26.0492 11.9997 25.9 12H6.10001Z" stroke="black" stroke-width="2" stroke-linecap="round" stroke-linejoin="round"/>
<path d="M26 21V23C26 24.0609 25.5786 25.0783 24.8284 25.8284C24.0783 26.5786 23.0609 27 22 27H10C8.93913 27 7.92172 26.5786 7.17157 25.8284C6.42143 25.0783 6 24.0609 6 23V21" stroke="black" stroke-width="2" stroke-linecap="round" stroke-linejoin="round"/>
<path d="M3.5 22L8.5 20L13.5 22L18.5 20L23.5 22L28.5 20" stroke="black" stroke-width="2" stroke-linecap="round" stroke-linejoin="round"/>
<path d="M3 16H29" stroke="black" stroke-width="2" stroke-linecap="round" stroke-linejoin="round"/>
</svg>
