<svg width="32" height="32" viewBox="0 0 32 32" fill="none" xmlns="http://www.w3.org/2000/svg">
<path d="M12 9V6" stroke="black" stroke-width="2" stroke-linecap="round" stroke-linejoin="round"/>
<path d="M20 26V23" stroke="black" stroke-width="2" stroke-linecap="round" stroke-linejoin="round"/>
<path d="M9 12H6" stroke="black" stroke-width="2" stroke-linecap="round" stroke-linejoin="round"/>
<path d="M26 20H23" stroke="black" stroke-width="2" stroke-linecap="round" stroke-linejoin="round"/>
<path d="M8.87509 16.05L7.46259 17.4625C6.52439 18.4008 5.99731 19.6732 5.99731 21C5.99731 21.657 6.12672 22.3076 6.37813 22.9145C6.62954 23.5215 6.99804 24.073 7.46259 24.5375C7.92715 25.0021 8.47865 25.3706 9.08561 25.622C9.69258 25.8734 10.3431 26.0028 11.0001 26.0028C12.3269 26.0028 13.5994 25.4758 14.5376 24.5375L15.9501 23.125" stroke="black" stroke-width="2" stroke-linecap="round" stroke-linejoin="round"/>
<path d="M23.125 15.95L24.5375 14.5375C25.4758 13.5993 26.0028 12.3268 26.0028 11C26.0028 9.67315 25.4758 8.40068 24.5375 7.46247C23.5993 6.52427 22.3269 5.99719 21 5.99719C19.6732 5.99719 18.4008 6.52427 17.4625 7.46247L16.05 8.87497" stroke="black" stroke-width="2" stroke-linecap="round" stroke-linejoin="round"/>
</svg>
