<svg width="32" height="32" viewBox="0 0 32 32" fill="none" xmlns="http://www.w3.org/2000/svg">
<path d="M7.99993 27C7.73471 27 7.48036 26.8946 7.29282 26.7071C7.10529 26.5196 6.99993 26.2652 6.99993 26V20.6625C6.45132 20.9242 5.8433 21.0363 5.23743 20.9875C4.72442 20.9498 4.22603 20.7995 3.77772 20.5473C3.32941 20.295 2.94221 19.9471 2.64367 19.5282C2.34513 19.1093 2.14259 18.6298 2.05048 18.1237C1.95836 17.6176 1.97892 17.0974 2.11071 16.6002C2.24249 16.103 2.48225 15.6409 2.81293 15.2469C3.1436 14.8529 3.55707 14.5366 4.02389 14.3206C4.49071 14.1045 4.99941 13.994 5.5138 13.997C6.02818 13.9999 6.53559 14.1161 6.99993 14.3375V8.99999C6.99993 8.73477 7.10529 8.48042 7.29282 8.29288C7.48036 8.10535 7.73471 7.99999 7.99993 7.99999H13.8374C13.5757 7.45138 13.4636 6.84336 13.5124 6.23749C13.5501 5.72448 13.7004 5.22609 13.9527 4.77778C14.2049 4.32947 14.5528 3.94227 14.9717 3.64373C15.3906 3.34519 15.8702 3.14266 16.3762 3.05054C16.8823 2.95842 17.4025 2.97898 17.8997 3.11077C18.3969 3.24255 18.859 3.48231 19.253 3.81299C19.647 4.14367 19.9633 4.55713 20.1793 5.02395C20.3954 5.49077 20.5059 5.99948 20.503 6.51386C20.5 7.02824 20.3838 7.53566 20.1624 7.99999H25.9999C26.2651 7.99999 26.5195 8.10535 26.707 8.29288C26.8946 8.48042 26.9999 8.73477 26.9999 8.99999V14.3375C26.4513 14.0758 25.8433 13.9637 25.2374 14.0125C24.7244 14.0502 24.226 14.2005 23.7777 14.4527C23.3294 14.7049 22.9422 15.0529 22.6437 15.4718C22.3451 15.8907 22.1426 16.3702 22.0505 16.8763C21.9584 17.3824 21.9789 17.9025 22.1107 18.3998C22.2425 18.897 22.4823 19.359 22.8129 19.7531C23.1436 20.1471 23.5571 20.4634 24.0239 20.6794C24.4907 20.8955 24.9994 21.0059 25.5138 21.003C26.0282 21.0001 26.5356 20.8838 26.9999 20.6625V26C26.9999 26.2652 26.8946 26.5196 26.707 26.7071C26.5195 26.8946 26.2651 27 25.9999 27H7.99993Z" stroke="black" stroke-width="2" stroke-linecap="round" stroke-linejoin="round"/>
</svg>
