<svg width="32" height="32" viewBox="0 0 32 32" fill="none" xmlns="http://www.w3.org/2000/svg">
<path d="M27.3625 9.63745C28.1993 10.4723 28.8632 11.464 29.3162 12.5558C29.7692 13.6475 30.0023 14.8179 30.0023 16C30.0023 17.182 29.7692 18.3524 29.3162 19.4441C28.8632 20.5359 28.1993 21.5276 27.3625 22.3625" stroke="black" stroke-width="2" stroke-linecap="round" stroke-linejoin="round"/>
<path d="M10 11V21" stroke="black" stroke-width="2" stroke-linecap="round" stroke-linejoin="round"/>
<path d="M23.825 13.175C24.1968 13.5455 24.4919 13.9858 24.6933 14.4706C24.8946 14.9553 24.9983 15.4751 24.9983 16C24.9983 16.525 24.8946 17.0448 24.6933 17.5295C24.4919 18.0143 24.1968 18.4546 23.825 18.825" stroke="black" stroke-width="2" stroke-linecap="round" stroke-linejoin="round"/>
<path d="M6 5L26 27" stroke="black" stroke-width="2" stroke-linecap="round" stroke-linejoin="round"/>
<path d="M19 19.3V28L10 21H4C3.73478 21 3.48043 20.8947 3.29289 20.7071C3.10536 20.5196 3 20.2652 3 20V12C3 11.7348 3.10536 11.4805 3.29289 11.2929C3.48043 11.1054 3.73478 11 4 11H10L10.85 10.3375" stroke="black" stroke-width="2" stroke-linecap="round" stroke-linejoin="round"/>
<path d="M14.0249 7.875L18.9999 4V13.35" stroke="black" stroke-width="2" stroke-linecap="round" stroke-linejoin="round"/>
</svg>
