<svg width="32" height="32" viewBox="0 0 32 32" fill="none" xmlns="http://www.w3.org/2000/svg">
<path d="M6 5L26 27" stroke="black" stroke-width="2" stroke-linecap="round" stroke-linejoin="round"/>
<path d="M13.3875 7.18744C14.2526 7.0615 15.1257 6.99883 16 6.99994C20.8165 6.98698 25.4419 8.88386 28.8625 12.2749" stroke="black" stroke-width="2" stroke-linecap="round" stroke-linejoin="round"/>
<path d="M3.13745 12.275C4.83296 10.5962 6.84185 9.26681 9.04995 8.36255" stroke="black" stroke-width="2" stroke-linecap="round" stroke-linejoin="round"/>
<path d="M19.0125 13.375C21.1304 13.8996 23.0687 14.9831 24.625 16.5125" stroke="black" stroke-width="2" stroke-linecap="round" stroke-linejoin="round"/>
<path d="M7.375 16.5125C9.06246 14.8614 11.1882 13.7291 13.5 13.25" stroke="black" stroke-width="2" stroke-linecap="round" stroke-linejoin="round"/>
<path d="M11.6125 20.7625C12.7398 19.6862 14.2229 19.0611 15.7805 19.0058C17.3381 18.9505 18.8618 19.4689 20.0625 20.4625" stroke="black" stroke-width="2" stroke-linecap="round" stroke-linejoin="round"/>
<path d="M16 26.5C16.8284 26.5 17.5 25.8284 17.5 25C17.5 24.1716 16.8284 23.5 16 23.5C15.1716 23.5 14.5 24.1716 14.5 25C14.5 25.8284 15.1716 26.5 16 26.5Z" fill="black"/>
</svg>
